<svg width="55" height="55" viewBox="0 0 55 55" fill="none" xmlns="http://www.w3.org/2000/svg">
<path d="M20.6251 25.186C21.2328 25.186 21.8157 24.9446 22.2455 24.5148C22.6753 24.085 22.9167 23.5021 22.9167 22.8943C22.9167 22.2865 22.6753 21.7036 22.2455 21.2739C21.8157 20.8441 21.2328 20.6027 20.6251 20.6027C20.0173 20.6027 19.4344 20.8441 19.0046 21.2739C18.5748 21.7036 18.3334 22.2865 18.3334 22.8943C18.3334 23.5021 18.5748 24.085 19.0046 24.5148C19.4344 24.9446 20.0173 25.186 20.6251 25.186V25.186ZM32.0834 29.7647C32.0834 30.3725 31.8419 30.9554 31.4122 31.3852C30.9824 31.815 30.3995 32.0564 29.7917 32.0564C29.1839 32.0564 28.601 31.815 28.1713 31.3852C27.7415 30.9554 27.5001 30.3725 27.5001 29.7647C27.5001 29.157 27.7415 28.5741 28.1713 28.1443C28.601 27.7145 29.1839 27.4731 29.7917 27.4731C30.3995 27.4731 30.9824 27.7145 31.4122 28.1443C31.8419 28.5741 32.0834 29.157 32.0834 29.7647V29.7647ZM20.6251 38.9268C21.2328 38.9268 21.8157 38.6854 22.2455 38.2556C22.6753 37.8258 22.9167 37.243 22.9167 36.6352C22.9167 36.0274 22.6753 35.4445 22.2455 35.0147C21.8157 34.5849 21.2328 34.3435 20.6251 34.3435C20.0173 34.3435 19.4344 34.5849 19.0046 35.0147C18.5748 35.4445 18.3334 36.0274 18.3334 36.6352C18.3334 37.243 18.5748 37.8258 19.0046 38.2556C19.4344 38.6854 20.0173 38.9268 20.6251 38.9268V38.9268ZM11.4584 10.6797C11.4584 7.24912 14.2771 4.25162 17.9209 4.61142C29.7858 5.78741 40.7779 11.371 48.7255 20.2589C51.1776 22.9929 50.4144 27.0514 47.6278 29.0704C44.0024 31.7012 38.5986 35.6177 35.5209 37.8543C35.5163 38.8558 35.5163 39.5066 35.5186 40.3568V41.796C35.5189 42.3822 35.3907 42.9614 35.143 43.4927C34.8953 44.024 34.5342 44.4946 34.085 44.8712C33.6358 45.2479 33.1095 45.5215 32.5431 45.6728C31.9768 45.8241 31.3841 45.8493 30.8069 45.7468C30.3394 47.6397 28.6711 49.2462 26.3519 49.2462C24.7478 49.2462 23.4598 48.4785 22.6646 47.3785L19.6282 49.5716C16.2182 52.0329 11.4469 49.5968 11.4492 45.387L11.4584 10.682V10.6797ZM17.584 8.03287C16.1884 7.89537 14.8936 9.04808 14.8936 10.6797V11.8714C26.934 12.3779 37.6063 18.1712 44.6509 26.9827L45.6111 26.286C46.9357 25.3235 47.1053 23.5979 46.1657 22.5506C38.7912 14.3051 28.5923 9.12546 17.584 8.03517V8.03287ZM14.8867 45.387C14.8867 46.7895 16.4771 47.6031 17.6138 46.7804L22.4905 43.265C22.7474 43.0801 23.0504 42.9698 23.3661 42.9462C23.6817 42.9226 23.9977 42.9866 24.2793 43.1312C24.5609 43.2758 24.7971 43.4953 24.9618 43.7656C25.1266 44.0358 25.2135 44.3463 25.213 44.6629C25.213 45.2816 25.6919 45.8087 26.3519 45.8087C26.503 45.8102 26.6529 45.7817 26.7929 45.7247C26.9329 45.6677 27.0601 45.5834 27.1672 45.4768C27.2742 45.3701 27.359 45.2432 27.4166 45.1035C27.4741 44.9638 27.5033 44.814 27.5023 44.6629V41.7937C27.5023 41.3379 27.6834 40.9007 28.0058 40.5784C28.3281 40.256 28.7653 40.075 29.2211 40.075C29.6769 40.075 30.1141 40.256 30.4364 40.5784C30.7588 40.9007 30.9398 41.3379 30.9398 41.7937C30.9398 42.1145 31.1942 42.3666 31.5082 42.3666C31.6601 42.3666 31.8059 42.3063 31.9133 42.1988C32.0207 42.0914 32.0811 41.9457 32.0811 41.7937V40.3683C32.0788 39.2912 32.0765 38.5166 32.0926 36.956C32.0947 36.6876 32.1596 36.4235 32.2822 36.1847C32.4048 35.9459 32.5816 35.7392 32.7984 35.581C34.8655 34.0777 38.5184 31.4285 41.8642 29.0039C38.5968 24.9391 34.5018 21.6161 29.8512 19.2556C25.2007 16.8952 20.1011 15.5514 14.8913 15.3135L14.8867 45.387V45.387Z" fill="#01CFE7"/>
</svg>
